<?xml version="1.0" standalone="no"?>
<!DOCTYPE svg PUBLIC "-//W3C//DTD SVG 20010904//EN"
 "http://www.w3.org/TR/2001/REC-SVG-20010904/DTD/svg10.dtd">
<svg version="1.0" xmlns="http://www.w3.org/2000/svg"
 width="256.000000pt" height="256.000000pt" viewBox="0 0 256.000000 256.000000"
 preserveAspectRatio="xMidYMid meet">
<metadata>
Created by potrace 1.11, written by Peter Selinger 2001-2013
</metadata>
<g transform="translate(0.000000,256.000000) scale(0.100000,-0.100000)"
fill="#000000" stroke="none">
<path d="M0 1280 l0 -1280 1280 0 1280 0 0 1280 0 1280 -1280 0 -1280 0 0
-1280z m1395 652 c156 -80 199 -273 92 -414 -74 -97 -218 -129 -332 -74 -219
108 -200 416 32 502 52 20 157 13 208 -14z m-597 -216 c50 -34 92 -112 92
-171 0 -59 -42 -137 -92 -171 -37 -26 -50 -29 -118 -29 -68 0 -81 3 -118 29
-59 40 -96 119 -90 186 7 69 51 137 108 167 64 35 160 30 218 -11z m1187 15
c150 -68 153 -294 5 -368 -129 -66 -287 15 -298 151 -2 30 -2 70 2 89 8 41 63
108 108 130 44 22 133 21 183 -2z m-465 -382 c66 -31 123 -79 156 -131 45 -72
54 -133 54 -385 l0 -233 -465 0 -465 0 0 218 c0 304 14 367 105 457 47 47 103
80 162 95 21 5 119 8 218 7 171 -2 183 -4 235 -28z m-713 -47 c8 -5 2 -27 -23
-77 -43 -88 -54 -155 -54 -357 l0 -158 -205 0 -205 0 0 189 c0 204 7 244 56
308 33 44 95 82 147 93 54 10 268 12 284 2z m1274 -14 c50 -22 106 -74 132
-122 20 -38 22 -58 25 -248 l3 -208 -220 0 -221 0 0 183 c0 201 -11 268 -57
347 -15 25 -27 47 -27 50 -3 24 308 22 365 -2z"/>
</g>
</svg>
